# xmcd
#
# Track frame offsets:
#	150
#	146761
#	210948
#
# Disc length: 4314 seconds
#
# Revision: 0
# Processed by: cddbd v1.5.2PL0 Copyright (c) Steve Scherf et al.
# Submitted via: audiograbber 1.83.01
#
DISCID=2410d803
DTITLE=Klaus Schulze - Miditerranean Pads
DYEAR=1990
DGENRE=Electronic
TTITLE0=Decent Changes
TTITLE1=Miditerranean Pads
TTITLE2=Percussion Planante
EXTD=
EXTT0=
EXTT1=
EXTT2=
PLAYORDER=
